<svg width="16" height="16" viewBox="0 0 16 16" fill="none" xmlns="http://www.w3.org/2000/svg">
<path d="M7.90472 0.00013087C7.24498 0.00316295 6.61493 0.0588153 6.06056 0.15584C4.42744 0.441207 4.13093 1.0385 4.13093 2.14002V3.59479H7.99018V4.07971H4.13093H2.68259C1.56098 4.07971 0.578874 4.7465 0.271682 6.01495C-0.0826595 7.4689 -0.0983765 8.37618 0.271682 9.89434C0.546011 11.0244 1.20115 11.8296 2.32275 11.8296H3.64965V10.0856C3.64965 8.82574 4.75178 7.71441 6.06056 7.71441H9.91531C10.9883 7.71441 11.8449 6.84056 11.8449 5.77472V2.14002C11.8449 1.10556 10.9626 0.328486 9.91531 0.15584C9.25235 0.046687 8.56447 -0.00290121 7.90472 0.00013087ZM5.81767 1.17017C6.2163 1.17017 6.54184 1.49742 6.54184 1.89978C6.54184 2.30072 6.2163 2.62494 5.81767 2.62494C5.41761 2.62494 5.0935 2.30072 5.0935 1.89978C5.0935 1.49742 5.41761 1.17017 5.81767 1.17017Z" fill="url(#paint0_linear)"/>
<path d="M12.3262 4.07971V5.77472C12.3262 7.08883 11.1998 8.19488 9.9153 8.19488H6.06055C5.00466 8.19488 4.13092 9.0887 4.13092 10.1346V13.7693C4.13092 14.8037 5.04038 15.4122 6.06055 15.709C7.28217 16.0642 8.45364 16.1285 9.9153 15.709C10.8869 15.4307 11.8449 14.8708 11.8449 13.7693V12.3145H7.99017V11.8296H11.8449H13.7746C14.8962 11.8296 15.3141 11.0558 15.7042 9.89434C16.1071 8.69865 16.09 7.5488 15.7042 6.01495C15.427 4.91058 14.8976 4.07971 13.7746 4.07971H12.3262ZM10.1582 13.2843C10.5583 13.2843 10.8824 13.6086 10.8824 14.0095C10.8824 14.4119 10.5583 14.7391 10.1582 14.7391C9.75955 14.7391 9.43402 14.4119 9.43402 14.0095C9.43402 13.6086 9.75955 13.2843 10.1582 13.2843Z" fill="url(#paint1_linear)"/>
<defs>
<linearGradient id="paint0_linear" x1="1.25961e-08" y1="1.08223e-08" x2="8.81664" y2="7.59597" gradientUnits="userSpaceOnUse">
<stop stop-color="#5A9FD4"/>
<stop offset="1" stop-color="#306998"/>
</linearGradient>
<linearGradient id="paint1_linear" x1="10.0654" y1="13.8872" x2="6.91912" y2="9.42957" gradientUnits="userSpaceOnUse">
<stop stop-color="#FFD43B"/>
<stop offset="1" stop-color="#FFE873"/>
</linearGradient>
</defs>
</svg>
